<?xml version="1.0" encoding="UTF-8"?>
<svg width="1817px" height="1075px" viewBox="0 0 1817 1075" version="1.1" xmlns="http://www.w3.org/2000/svg" xmlns:xlink="http://www.w3.org/1999/xlink">
    <!-- Generator: Sketch 49 (51002) - http://www.bohemiancoding.com/sketch -->
    <title>arc</title>
    <desc>Created with Sketch.</desc>
    <defs></defs>
    <g id="Homepage" stroke="none" stroke-width="1" fill="none" fill-rule="evenodd">
        <g id="Artboard" transform="translate(-1208.000000, -1049.000000)">
            <g id="arc" transform="translate(1182.000000, 1049.000000)">
                <g id="Group-16" transform="translate(583.879788, 560.007728) rotate(-2.000000) translate(-583.879788, -560.007728) translate(17.879788, 48.007728)" fill="#E3E3E3">
                    <path d="M1021.33683,0.492800594 C975.190863,11.9794639 928.571324,25.7459911 881.800873,41.8503489 C397.142091,208.731751 117.547013,532.104653 210.75502,802.800361 C279.028775,1001.08174 713.259369,978.127891 1131.17215,886.071727 C1090.61901,903.641678 1048.52987,920.004152 1005.09823,934.958863 C539.354571,1095.32727 95.5974786,1033.08076 13.9390269,795.927395 C-67.7194248,558.774031 243.643159,236.518967 709.386822,76.1505625 C815.874588,39.4838844 921.212975,14.4547083 1021.3368,0.492804431 Z" id="Combined-Shape-Copy-5"></path>
                </g>
                <path d="M1073.6825,22.2839849 C1026.34458,32.8206275 978.259632,46.3526554 929.974975,62.9783962 C539.633846,197.383625 284.055403,483.07798 359.124544,701.094597 C434.193686,919.111214 811.483255,986.891636 1201.82438,852.486407 C1592.16551,718.081178 1847.74396,432.386823 1772.67481,214.370206 C1731.63704,95.1878548 1600.28247,20.902706 1425.85205,0.00163973639 C1631.53303,17.2513688 1784.53708,94.6399507 1829.20318,224.359719 C1910.86163,461.513083 1599.49905,783.768148 1133.75539,944.136552 C668.011722,1104.50496 224.254629,1042.25845 142.596178,805.105084 C60.937726,567.95172 372.30031,245.696655 838.043973,85.3282513 C917.804367,57.8645453 996.919942,36.9296627 1073.68248,22.2839892 Z" id="Combined-Shape" fill="#EAEAEA"></path>
            </g>
        </g>
    </g>
</svg>