<?xml version="1.0" encoding="utf-8"?>
<!-- Generator: Adobe Illustrator 20.1.0, SVG Export Plug-In . SVG Version: 6.00 Build 0)  -->
<svg version="1.2" baseProfile="tiny" id="Capa_1" xmlns="http://www.w3.org/2000/svg" xmlns:xlink="http://www.w3.org/1999/xlink"
	 x="0px" y="0px" viewBox="0 0 41.7 40.5" xml:space="preserve">
<g>
	<path fill="none" d="M22.2,14.6c0-0.8,0.5-1,0.9-1c0.4,0,2.2,0,2.2,0v-3.4l-3.1,0c-3.4,0-4.2,2.6-4.2,4.2v2.3h-2v3.5h2
		c0,4.5,0,10,0,10h4.2c0,0,0-5.5,0-10H25l0.4-3.5h-3.2V14.6z"/>
	<path fill="#FFFFFF" d="M20.7,0.2c-11,0-20,9-20,20c0,11,9,20,20,20c11,0,20-9,20-20C40.7,9.2,31.8,0.2,20.7,0.2z M25,20.3h-2.8
		c0,4.5,0,10,0,10h-4.2c0,0,0-5.5,0-10h-2v-3.5h2v-2.3c0-1.6,0.8-4.2,4.2-4.2l3.1,0v3.4c0,0-1.9,0-2.2,0c-0.4,0-0.9,0.2-0.9,1v2.1
		h3.2L25,20.3z"/>
</g>
</svg>
