<?xml version="1.0" encoding="utf-8"?>
<!-- Generator: Adobe Illustrator 20.1.0, SVG Export Plug-In . SVG Version: 6.00 Build 0)  -->
<svg version="1.2" baseProfile="tiny" id="Capa_1" xmlns="http://www.w3.org/2000/svg" xmlns:xlink="http://www.w3.org/1999/xlink"
	 x="0px" y="0px" viewBox="0 0 41.7 40.5" xml:space="preserve">
<g>
	<path fill="none" d="M31.2,26.7c-0.6-0.5-1.6-0.4-2.3-0.6c-2.4-0.7,0.3-5.6,0.9-6.9c0.9-1.9,3.2-6.6-0.5-7.3
		c-0.7-0.1-1.5,0-2.1,0.1c-0.8,0.2-0.9,0.6-1.9-0.2c-0.7-0.6-1.3-0.9-2.2-0.7c-0.9,0.2-1.2,1-1.9,1.4c-0.7,0.4-1.2,0.2-1.9-0.2
		c-0.7-0.4-1.6-0.8-2.4-0.9c-3.2-0.3-4,4.2-4.9,6.3c-0.5,1.2-0.7,2.5-1.1,3.7c-0.5,1.6-1,3.1-0.5,4.7c0,0,1,2.1,4.2,1.3
		c1.2-0.3,1.5-1.6,1.7-2.6c0.3-1.3,0.7-2.5,1.3-3.7c0.5-1,0.8-2.1,1.3-3.2c0.3-0.6,0.5-1.6,1.4-1.5c2.3,0.4-1.1,5.6-1.4,7.8
		c-0.1,0.5,0,0.9,0.4,1.2c0.6,0.4,1.4,0.3,1.9-0.1c0.6-0.5,1.2-1.5,1.6-2.2c0,0,1.9-4.1,2.2-4.9c0.3-0.7,0.8-1.6,1.3-2.2
		c0.5-0.6,1.3-0.6,1.6,0.1c0.3,0.7-0.4,1.7-0.8,2.3c-0.4,0.8-0.8,1.5-1.3,2.2c-1.4,2.5-2.1,6.1,1.1,7.5c1,0.4,2.3,0.7,3.4,0.5
		c0.4-0.1,0.8-0.3,1-0.6C31.8,27.7,31.9,27.2,31.2,26.7z"/>
	<path fill="#FFFFFF" d="M21-0.1c-11,0-20,9-20,20c0,11,9,20,20,20c11,0,20-9,20-20C41,8.8,32-0.1,21-0.1z M31.4,28.1
		c-0.2,0.3-0.6,0.5-1,0.6c-1.1,0.3-2.4,0-3.4-0.5c-3.2-1.4-2.5-5-1.1-7.5c0.4-0.7,0.8-1.5,1.3-2.2c0.3-0.6,1.1-1.6,0.8-2.3
		c-0.3-0.8-1.1-0.8-1.6-0.1c-0.5,0.6-0.9,1.5-1.3,2.2c-0.4,0.8-2.2,4.9-2.2,4.9c-0.3,0.7-0.9,1.6-1.6,2.2c-0.5,0.4-1.3,0.5-1.9,0.1
		c-0.4-0.3-0.5-0.7-0.4-1.2c0.4-2.2,3.8-7.4,1.4-7.8c-0.9-0.1-1.1,0.9-1.4,1.5c-0.5,1.1-0.8,2.1-1.3,3.2c-0.6,1.2-1,2.4-1.3,3.7
		c-0.2,1-0.5,2.3-1.7,2.6c-3.2,0.9-4.2-1.3-4.2-1.3c-0.5-1.7,0-3.2,0.5-4.7c0.4-1.2,0.6-2.5,1.1-3.7c0.9-2.1,1.8-6.6,4.9-6.3
		c0.8,0.1,1.7,0.5,2.4,0.9c0.6,0.4,1.1,0.6,1.9,0.2c0.7-0.4,1-1.1,1.9-1.4c0.9-0.3,1.5,0.1,2.2,0.7c1,0.8,1.1,0.4,1.9,0.2
		c0.7-0.2,1.4-0.2,2.1-0.1c3.7,0.6,1.3,5.4,0.5,7.3c-0.6,1.2-3.3,6.2-0.9,6.9c0.7,0.2,1.7,0.1,2.3,0.6
		C31.9,27.2,31.8,27.7,31.4,28.1z"/>
</g>
</svg>
