<?xml version="1.0" encoding="utf-8"?>
<!-- Generator: Adobe Illustrator 20.1.0, SVG Export Plug-In . SVG Version: 6.00 Build 0)  -->
<svg version="1.2" baseProfile="tiny" id="Capa_1" xmlns="http://www.w3.org/2000/svg" xmlns:xlink="http://www.w3.org/1999/xlink"
	 x="0px" y="0px" viewBox="0 0 41.7 40.5" xml:space="preserve">
<g>
	<path fill="none" d="M30.2,12.1c-0.8,0.5-1.7,0.8-2.6,1c-0.7-0.8-1.8-1.3-3-1.3c-2.3,0-4.1,1.8-4.1,4.1c0,0.3,0,0.6,0.1,0.9
		c-3.4-0.2-6.4-1.8-8.5-4.3c-0.4,0.6-0.6,1.3-0.6,2.1c0,1.4,0.7,2.7,1.8,3.4c-0.7,0-1.3-0.2-1.9-0.5c0,0,0,0,0,0.1
		c0,2,1.4,3.6,3.3,4c-0.3,0.1-0.7,0.1-1.1,0.1c-0.3,0-0.5,0-0.8-0.1c0.5,1.6,2,2.8,3.8,2.8c-1.4,1.1-3.2,1.8-5.1,1.8
		c-0.3,0-0.7,0-1-0.1c1.8,1.2,4,1.8,6.3,1.8c7.5,0,11.7-6.3,11.7-11.7c0-0.2,0-0.4,0-0.5c0.8-0.6,1.5-1.3,2-2.1
		c-0.7,0.3-1.5,0.5-2.4,0.6C29.2,13.8,29.9,13,30.2,12.1z"/>
	<path fill="#FFFFFF" d="M20.7-0.1c-11,0-20,9-20,20c0,11,9,20,20,20s20-9,20-20C40.7,8.8,31.8-0.1,20.7-0.1z M28.7,15.8
		c0,0.2,0,0.4,0,0.5C28.7,21.8,24.6,28,17,28c-2.3,0-4.5-0.7-6.3-1.8c0.3,0,0.6,0.1,1,0.1c1.9,0,3.7-0.7,5.1-1.8
		c-1.8,0-3.3-1.2-3.8-2.8c0.2,0,0.5,0.1,0.8,0.1c0.4,0,0.7-0.1,1.1-0.1c-1.9-0.4-3.3-2-3.3-4c0,0,0,0,0-0.1c0.6,0.3,1.2,0.5,1.9,0.5
		c-1.1-0.7-1.8-2-1.8-3.4c0-0.8,0.2-1.5,0.6-2.1c2,2.5,5,4.1,8.5,4.3c-0.1-0.3-0.1-0.6-0.1-0.9c0-2.3,1.8-4.1,4.1-4.1
		c1.2,0,2.2,0.5,3,1.3c0.9-0.2,1.8-0.5,2.6-1c-0.3,1-1,1.8-1.8,2.3c0.8-0.1,1.6-0.3,2.4-0.6C30.2,14.5,29.5,15.2,28.7,15.8z"/>
</g>
</svg>
