<?xml version="1.0" encoding="utf-8"?>
<!-- Generator: Adobe Illustrator 20.1.0, SVG Export Plug-In . SVG Version: 6.00 Build 0)  -->
<svg version="1.2" baseProfile="tiny" id="Capa_1" xmlns="http://www.w3.org/2000/svg" xmlns:xlink="http://www.w3.org/1999/xlink"
	 x="0px" y="0px" viewBox="0 0 41.7 40.5" xml:space="preserve">
<g>
	<path fill="none" d="M20.8,18.2c0.5,0,0.9-0.1,1.2-0.4c0.3-0.3,0.4-0.6,0.4-1.1v-2.9c0-0.4-0.1-0.8-0.4-1c-0.3-0.3-0.7-0.4-1.2-0.4
		c-0.5,0-0.9,0.1-1.2,0.4c-0.3,0.3-0.5,0.6-0.5,1v2.9c0,0.5,0.1,0.8,0.4,1.1C19.9,18,20.3,18.2,20.8,18.2z M20.3,13.7
		c0-0.1,0-0.2,0.1-0.3c0.1-0.1,0.2-0.1,0.3-0.1c0.2,0,0.3,0,0.4,0.1c0.1,0.1,0.1,0.2,0.1,0.3v3c0,0.1,0,0.3-0.1,0.4
		c-0.1,0.1-0.2,0.1-0.4,0.1c-0.2,0-0.3,0-0.3-0.1c-0.1-0.1-0.1-0.2-0.1-0.4V13.7z"/>
	<path fill="none" d="M22.8,23.6c-0.1,0-0.1,0-0.2,0c-0.1,0-0.1,0.1-0.2,0.2v3.1c0.1,0.1,0.2,0.1,0.2,0.2c0.1,0,0.2,0.1,0.2,0.1
		c0.1,0,0.2,0,0.3-0.1c0.1-0.1,0.1-0.2,0.1-0.3v-2.6c0-0.2,0-0.3-0.1-0.4S23,23.6,22.8,23.6z"/>
	<polygon fill="none" points="16.3,18 17.6,18 17.6,14.9 19.1,10.5 17.8,10.5 17,13.5 16.9,13.5 16.1,10.5 14.8,10.5 16.3,15.1 	"/>
	<path fill="none" d="M24.2,18.1c0.2,0,0.4-0.1,0.7-0.2c0.2-0.1,0.4-0.3,0.7-0.5V18h1.1v-5.5h-1.1v4.2c-0.1,0.1-0.2,0.2-0.3,0.3
		c-0.1,0.1-0.2,0.1-0.3,0.1c-0.1,0-0.2,0-0.2-0.1c0-0.1-0.1-0.2-0.1-0.3v-4.3h-1.1v4.6c0,0.3,0.1,0.6,0.2,0.7
		C23.7,18,23.9,18.1,24.2,18.1z"/>
	<path fill="none" d="M26.3,23.6c-0.2,0-0.3,0-0.3,0.1c-0.1,0.1-0.1,0.2-0.1,0.5v0.5h0.9v-0.5c0-0.2,0-0.4-0.1-0.5
		C26.6,23.7,26.4,23.6,26.3,23.6z"/>
	<path fill="none" d="M27.3,19.8H14.7c-2,0-3.6,1.6-3.6,3.6v2.9c0,2,1.6,3.6,3.6,3.6h12.6c2,0,3.6-1.6,3.6-3.6v-2.9
		C30.9,21.4,29.3,19.8,27.3,19.8z M17.3,22.1h-1.2v5.8H15v-5.8h-1.2v-1h3.5V22.1z M20.6,27.9h-1v-0.6c-0.2,0.2-0.4,0.4-0.6,0.5
		c-0.2,0.1-0.4,0.2-0.6,0.2c-0.2,0-0.4-0.1-0.5-0.2c-0.1-0.2-0.2-0.4-0.2-0.7v-4.2h1v3.9c0,0.1,0,0.2,0.1,0.3c0,0.1,0.1,0.1,0.2,0.1
		c0.1,0,0.2,0,0.3-0.1c0.1-0.1,0.2-0.2,0.3-0.3v-3.8h1V27.9z M24.3,26.8c0,0.4-0.1,0.6-0.2,0.8c-0.2,0.2-0.4,0.3-0.7,0.3
		c-0.2,0-0.4,0-0.5-0.1c-0.2-0.1-0.3-0.2-0.4-0.3v0.4h-1v-6.8h1v2.2c0.1-0.2,0.3-0.3,0.4-0.4c0.2-0.1,0.3-0.1,0.5-0.1
		c0.3,0,0.6,0.1,0.7,0.3c0.2,0.2,0.3,0.5,0.3,0.9V26.8z M27.8,25.5h-1.9v0.9c0,0.3,0,0.4,0.1,0.6c0.1,0.1,0.2,0.2,0.3,0.2
		c0.2,0,0.3,0,0.4-0.1c0.1-0.1,0.1-0.3,0.1-0.6v-0.2h1v0.3c0,0.5-0.1,0.9-0.4,1.2c-0.2,0.3-0.6,0.4-1.1,0.4c-0.4,0-0.8-0.1-1.1-0.4
		c-0.3-0.3-0.4-0.7-0.4-1.1v-2.3c0-0.4,0.1-0.8,0.4-1.1c0.3-0.3,0.6-0.4,1.1-0.4c0.5,0,0.8,0.1,1.1,0.4c0.2,0.3,0.4,0.6,0.4,1.1
		V25.5z"/>
	<path fill="#FFFFFF" d="M26.3,22.7c-0.5,0-0.8,0.1-1.1,0.4c-0.3,0.3-0.4,0.6-0.4,1.1v2.3c0,0.5,0.1,0.9,0.4,1.1
		c0.3,0.3,0.6,0.4,1.1,0.4c0.5,0,0.9-0.1,1.1-0.4c0.3-0.3,0.4-0.6,0.4-1.2v-0.3h-1v0.2c0,0.3,0,0.5-0.1,0.6
		c-0.1,0.1-0.2,0.1-0.4,0.1c-0.2,0-0.3-0.1-0.3-0.2c-0.1-0.1-0.1-0.3-0.1-0.6v-0.9h1.9v-1.3c0-0.5-0.1-0.8-0.4-1.1
		C27.1,22.9,26.8,22.7,26.3,22.7z M26.7,24.7h-0.9v-0.5c0-0.2,0-0.4,0.1-0.5c0.1-0.1,0.2-0.1,0.3-0.1c0.2,0,0.3,0,0.3,0.1
		c0.1,0.1,0.1,0.2,0.1,0.5V24.7z"/>
	<polygon fill="#FFFFFF" points="13.8,22.1 15,22.1 15,27.9 16.1,27.9 16.1,22.1 17.3,22.1 17.3,21.1 13.8,21.1 	"/>
	<path fill="#FFFFFF" d="M19.6,26.7c-0.1,0.1-0.2,0.2-0.3,0.3c-0.1,0.1-0.2,0.1-0.3,0.1c-0.1,0-0.2,0-0.2-0.1c0-0.1-0.1-0.1-0.1-0.3
		v-3.9h-1v4.2c0,0.3,0.1,0.5,0.2,0.7c0.1,0.2,0.3,0.2,0.5,0.2c0.2,0,0.4-0.1,0.6-0.2c0.2-0.1,0.4-0.3,0.6-0.5v0.6h1v-5h-1V26.7z"/>
	<path fill="#FFFFFF" d="M23.3,22.8c-0.2,0-0.3,0-0.5,0.1c-0.2,0.1-0.3,0.2-0.4,0.4v-2.2h-1v6.8h1v-0.4c0.1,0.2,0.3,0.3,0.4,0.3
		c0.2,0.1,0.3,0.1,0.5,0.1c0.3,0,0.5-0.1,0.7-0.3c0.2-0.2,0.2-0.5,0.2-0.8v-2.8c0-0.4-0.1-0.7-0.3-0.9
		C23.9,22.9,23.6,22.8,23.3,22.8z M23.2,26.7c0,0.2,0,0.3-0.1,0.3c-0.1,0.1-0.1,0.1-0.3,0.1c-0.1,0-0.2,0-0.2-0.1
		c-0.1,0-0.2-0.1-0.2-0.2v-3.1c0.1-0.1,0.1-0.1,0.2-0.2c0.1,0,0.1,0,0.2,0c0.1,0,0.2,0,0.3,0.1s0.1,0.2,0.1,0.4V26.7z"/>
	<path fill="#FFFFFF" d="M21,0.4C10,0.4,1.1,9.3,1.1,20.2c0,11,8.9,19.9,19.9,19.9c11,0,19.9-8.9,19.9-19.9C40.9,9.3,32,0.4,21,0.4z
		 M23.4,12.5h1.1v4.3c0,0.1,0,0.2,0.1,0.3c0,0.1,0.1,0.1,0.2,0.1c0.1,0,0.2,0,0.3-0.1c0.1-0.1,0.2-0.2,0.3-0.3v-4.2h1.1V18h-1.1
		v-0.6c-0.2,0.2-0.4,0.4-0.7,0.5c-0.2,0.1-0.4,0.2-0.7,0.2c-0.3,0-0.5-0.1-0.6-0.3c-0.1-0.2-0.2-0.4-0.2-0.7V12.5z M19.2,13.8
		c0-0.4,0.2-0.8,0.5-1c0.3-0.3,0.7-0.4,1.2-0.4c0.5,0,0.9,0.1,1.2,0.4c0.3,0.3,0.4,0.6,0.4,1v2.9c0,0.5-0.1,0.8-0.4,1.1
		c-0.3,0.3-0.7,0.4-1.2,0.4c-0.5,0-0.9-0.1-1.2-0.4c-0.3-0.3-0.4-0.7-0.4-1.1V13.8z M16.1,10.5l0.8,3H17l0.8-3h1.3l-1.5,4.4V18h-1.3
		v-3l-1.5-4.5H16.1z M30.9,26.3c0,2-1.6,3.6-3.6,3.6H14.7c-2,0-3.6-1.6-3.6-3.6v-2.9c0-2,1.6-3.6,3.6-3.6h12.6c2,0,3.6,1.6,3.6,3.6
		V26.3z"/>
	<path fill="#FFFFFF" d="M20.8,17.2c0.2,0,0.3,0,0.4-0.1c0.1-0.1,0.1-0.2,0.1-0.4v-3c0-0.1,0-0.2-0.1-0.3c-0.1-0.1-0.2-0.1-0.4-0.1
		c-0.1,0-0.3,0-0.3,0.1c-0.1,0.1-0.1,0.2-0.1,0.3v3c0,0.2,0,0.3,0.1,0.4C20.5,17.2,20.6,17.2,20.8,17.2z"/>
</g>
</svg>
